<!DOCTYPE svg PUBLIC "-//W3C//DTD SVG 1.1//EN" "http://www.w3.org/Graphics/SVG/1.1/DTD/svg11.dtd">
<!-- Uploaded to: SVG Repo, www.svgrepo.com, Transformed by: SVG Repo Mixer Tools -->
<svg fill="#acf22c" width="256px" height="256px" viewBox="-2.4 -2.4 28.80 28.80" id="maps-location" data-name="Flat Color" xmlns="http://www.w3.org/2000/svg" class="icon flat-color" stroke="#acf22c" transform="matrix(-1, 0, 0, 1, 0, 0)rotate(0)" stroke-width="1.128">
<g id="SVGRepo_bgCarrier" stroke-width="0"/>
<g id="SVGRepo_tracerCarrier" stroke-linecap="round" stroke-linejoin="round" stroke="#f6e051" stroke-width="4.8">
<path id="primary" d="M22,19.67l-1.67-10a2,2,0,0,0-2-1.68H5.67a2,2,0,0,0-2,1.67L2,19.68A2,2,0,0,0,4,22H20a2,2,0,0,0,2-2.33Z" style="fill: #009e61;"/>
<path id="secondary" d="M12,2A5,5,0,0,0,7,7c0,4.36,4.12,8.53,4.29,8.71a1,1,0,0,0,1.42,0C12.88,15.53,17,11.36,17,7A5,5,0,0,0,12,2Z" style="fill: #ff9500;"/>
</g>
<g id="SVGRepo_iconCarrier">
<path id="primary" d="M22,19.67l-1.67-10a2,2,0,0,0-2-1.68H5.67a2,2,0,0,0-2,1.67L2,19.68A2,2,0,0,0,4,22H20a2,2,0,0,0,2-2.33Z" style="fill: #009e61;"/>
<path id="secondary" d="M12,2A5,5,0,0,0,7,7c0,4.36,4.12,8.53,4.29,8.71a1,1,0,0,0,1.42,0C12.88,15.53,17,11.36,17,7A5,5,0,0,0,12,2Z" style="fill: #ff9500;"/>
</g>
</svg>